<svg version="1" xmlns="http://www.w3.org/2000/svg" width="533.333" height="533.333" viewBox="0 0 400.000000 400.000000"><path d="M0 200v200h400V0H0v200zm152-67c7.3 3.7 7.3 3.7 3.8 8.6-1.7 2.4-3.3 4.4-3.5 4.4-.2 0-1.7-.9-3.2-2.1-1.6-1.2-5-2.4-7.5-2.6-8.7-1-12.8 5-6.6 9.9l2.9 2.3-3 4.8c-1.7 2.6-3.5 4.7-3.9 4.7-2 0-7.7-4.9-9.2-8-2.2-4.3-2.3-12.1-.3-16 1.6-3.1 5.4-6.1 10-7.8 4.7-1.8 15.3-.9 20.5 1.8zM44 144.6v13.5l-2.2-1.5c-3-2.1-5.4-2-7.8.4l-2 2v-28h12v13.6zm25.3-1.4c.4 6.6.7 20.4.7 30.5V192H58v-61h10.7l.6 12.2zm39.7 18.3V192h-5.4c-4.7 0-5.4-.3-6-2.3-.3-1.2-.9-14.9-1.3-30.5l-.6-28.2H109v30.5zm87-30c0 2-5.5 22.6-7.9 29.7l-2.9 8.7 7 .3 7 .3 1.9 5c1 2.7 1.9 5.1 1.9 5.2 0 .2-4.9.3-10.9.3h-11l-1.7 5.5-1.8 5.5h-6.8c-3.7 0-6.8-.4-6.8-.9 0-.6 14-39 21.1-57.9.7-1.9 1.6-2.2 5.9-2.2 2.7 0 5 .2 5 .5zM40.9 166.7l3.1-1.5V192H32v-28.1l2.9 2.2c2.7 2 3.1 2 6 .6zM319 207c7.4 3.7 7.4 3.7 3.4 8.6l-3.6 4.4-4.2-2.5c-7.5-4.4-15.6-2.8-15.6 3 0 3.3 2 4.9 9.2 7.5 7.9 2.7 13.6 6.5 16.5 10.9 3 4.4 3.2 13.2.4 17.7-7.6 12.4-27.3 13.8-40.6 2.9l-3-2.5 4.1-4.1 4.2-4.2 4.1 3.3c7.9 6.4 20.1 4.6 20.1-2.9 0-4.2-1.8-5.8-10.7-9.5-10.8-4.5-13.8-6.7-15.9-12.1-3.3-8.9-.3-17.3 7.8-21.5 5.8-2.9 17.1-2.4 23.8 1zm43.3-1.6c2.5.7 5.9 2.3 7.6 3.6l3.1 2.1-3.1 4.4-3.2 4.4-4.2-2.4c-5.3-3.1-11.7-3.3-14.5-.5-4.3 4.3-1.8 7.8 7.9 11.1 8.2 2.8 15.2 7.6 17.4 11.9 2.7 5.2 1.9 13.7-1.7 18.4-4.4 5.8-9.7 8.1-19.1 8.1-6.7 0-8.9-.4-13.6-2.7-3.1-1.6-6.4-3.7-7.4-4.8-1.8-2-1.8-2.1 2-6l3.8-3.9 4.9 3.5c6.5 4.4 13.5 4.8 17.3.9 5.3-5.2 2.4-9.6-9.3-14.4-12.7-5.2-16.2-9.2-16.2-18.1 0-13.1 12.9-20.3 28.3-15.6zm-263 8.6c3.2 4.7 6.3 9.1 7 9.8 1 1 2.5-.6 7.7-8 3.5-5.1 6.8-9.6 7.4-10 1.4-1 14.6-1 14.6-.1 0 .5-4.8 7.3-10.5 15.2-5.8 7.9-10.2 14.8-9.8 15.5.3.6 4.3 6.3 8.8 12.6 4.5 6.3 9 12.7 10 14.2l1.7 2.8h-15.7l-6.9-10c-3.8-5.5-7-10-7.1-10-.1 0-3.4 4.7-7.5 10.5L91.7 267h-7.3c-4.1 0-7.4-.3-7.4-.6s4.5-6.8 10-14.4c5.5-7.5 10.2-14.5 10.6-15.3.4-1-2.8-6.4-9-15.1-5.3-7.5-9.9-14.3-10.3-15.1-.5-1.4.5-1.5 7.3-1.3l7.9.3 5.8 8.5zm120-6.1c6.8 3.3 9.7 8 9.7 15.6 0 7.2-2.7 11.9-8.4 15-2 1.1-3.6 2.2-3.6 2.6 0 .3 3.5 5.5 7.8 11.5s8.1 11.5 8.6 12.1c.5 1-1 1.3-6.8 1.3H219l-8-12c-4.4-6.6-8.5-12-9-12-.6 0-1 4.8-1 12v12h-13v-29.8c0-16.4.3-30.2.8-30.6.4-.4 6.3-.6 13.2-.4 10.7.3 13.2.7 17.3 2.7zm58.7 2.6v5.5h-26v14h26v10h-26v16h26v10h-9.8c-5.5 0-14 .3-19 .6l-9.2.7V205h38v5.5zM71 211v5H45v14h26.1l-.3 5.2-.3 5.3-12.7.3-12.8.3v14.8l12.8.3 12.7.3v10l-19.2.3-19.3.2v-61h39v5zm101.1-2.3c6.6 3.4 9.9 8.5 9.9 15.6 0 11.8-6.9 17.9-21.9 19.3l-7.1.7V267h-12v-61h12.8c12 0 13.2.2 18.3 2.7z"/><path d="M174 170c-3.9 3.9-1.4 10 4.3 10 3.3 0 5.7-2.4 5.7-5.9 0-5.5-6.1-8-10-4.1zM201 223.5v7.5h4.6c7.3 0 10.4-2.2 10.4-7.7 0-4.5-3.8-7.3-10.1-7.3H201v7.5zM153 224.6v8.6l6-.4c7.1-.5 10-2.6 10-7.4 0-1.8-.3-4-.6-4.9-1-2.5-5.8-4.5-10.9-4.5H153v8.6z"/></svg>